<?xml version="1.0" encoding="UTF-8" standalone="no"?><!DOCTYPE svg PUBLIC "-//W3C//DTD SVG 1.1//EN" "http://www.w3.org/Graphics/SVG/1.1/DTD/svg11.dtd"><!-- Generated by graphviz version 2.40.1 (20161225.0304)
 --><!-- Title: G Pages: 1 --><svg xmlns="http://www.w3.org/2000/svg" xmlns:xlink="http://www.w3.org/1999/xlink" width="2118pt" height="1117pt" viewBox="0.00 0.00 2117.99 1116.78">
<g id="graph0" class="graph" transform="scale(1 1) rotate(0) translate(4 1112.783)">
<title>G</title>
<polygon fill="#ffffff" stroke="transparent" points="-4,4 -4,-1112.783 2113.9865,-1112.783 2113.9865,4 -4,4"/>
<!-- mq -->
<g id="node1" class="node">
<title>mq</title>
<polygon fill="none" stroke="#000000" points="133,-1108.783 99.8794,-1090.783 133,-1072.783 166.1206,-1090.783 133,-1108.783"/>
<text text-anchor="middle" x="133" y="-1086.583" font-family="Times,serif" font-size="14.00" fill="#000000">mq</text>
</g>
<!-- zt -->
<g id="node2" class="node">
<title>zt</title>
<ellipse fill="none" stroke="#000000" cx="252" cy="-1014.7761" rx="18.0125" ry="18.0125"/>
<ellipse fill="none" stroke="#000000" cx="252" cy="-1014.7761" rx="22.0138" ry="22.0138"/>
<text text-anchor="middle" x="252" y="-1010.5761" font-family="Times,serif" font-size="14.00" fill="#000000">zt</text>
</g>
<!-- mq&#45;&gt;zt -->
<g id="edge1" class="edge">
<title>mq-&gt;zt</title>
<path fill="none" stroke="#000000" d="M148.5572,-1080.8464C167.8861,-1068.5008 201.1938,-1047.2267 224.7868,-1032.1575"/>
<polygon fill="#000000" stroke="#000000" points="226.7604,-1035.05 233.304,-1026.7174 222.9923,-1029.1507 226.7604,-1035.05"/>
</g>
<!-- jl -->
<g id="node15" class="node">
<title>jl</title>
<polygon fill="none" stroke="#000000" points="270,-324 243,-306 270,-288 297,-306 270,-324"/>
<text text-anchor="middle" x="270" y="-301.8" font-family="Times,serif" font-size="14.00" fill="#000000">jl</text>
</g>
<!-- zt&#45;&gt;jl -->
<g id="edge43" class="edge">
<title>zt-&gt;jl</title>
<path fill="none" stroke="#000000" d="M269.5386,-1001.0004C282.5536,-990.0836 300.0434,-973.8671 312,-956.7692 361.8891,-885.4275 380,-860.1329 380,-773.078 380,-773.078 380,-773.078 380,-450 380,-392.7756 324.4645,-344.1707 292.314,-320.8271"/>
<polygon fill="#000000" stroke="#000000" points="294.1235,-317.8207 283.9316,-314.9267 290.0943,-323.5448 294.1235,-317.8207"/>
</g>
<!-- xc -->
<g id="node42" class="node">
<title>xc</title>
<ellipse fill="none" stroke="#000000" cx="1009" cy="-860.0757" rx="20.2791" ry="20.2791"/>
<ellipse fill="none" stroke="#000000" cx="1009" cy="-860.0757" rx="24.3044" ry="24.3044"/>
<text text-anchor="middle" x="1009" y="-855.8757" font-family="Times,serif" font-size="14.00" fill="#000000">xc</text>
</g>
<!-- zt&#45;&gt;xc -->
<g id="edge44" class="edge">
<title>zt-&gt;xc</title>
<path fill="none" stroke="#000000" d="M274.0623,-1013.7676C366.9361,-1009.3406 726.2699,-990.3377 834,-956.7692 889.8228,-939.3749 947.9512,-903.007 981.1819,-880.1656"/>
<polygon fill="#000000" stroke="#000000" points="983.2695,-882.977 989.4747,-874.3895 979.2686,-877.233 983.2695,-882.977"/>
</g>
<!-- jf -->
<g id="node43" class="node">
<title>jf</title>
<polygon fill="none" stroke="#000000" points="420,-956.7692 393,-938.7692 420,-920.7692 447,-938.7692 420,-956.7692"/>
<text text-anchor="middle" x="420" y="-934.5692" font-family="Times,serif" font-size="14.00" fill="#000000">jf</text>
</g>
<!-- zt&#45;&gt;jf -->
<g id="edge45" class="edge">
<title>zt-&gt;jf</title>
<path fill="none" stroke="#000000" d="M271.1697,-1003.8861C301.0398,-989.241 358.2213,-963.3867 392.4662,-949.0566"/>
<polygon fill="#000000" stroke="#000000" points="393.9777,-952.2193 401.8886,-945.1717 391.3094,-945.7478 393.9777,-952.2193"/>
</g>
<!-- fh -->
<g id="node44" class="node">
<title>fh</title>
<polygon fill="none" stroke="#000000" points="190,-618.6935 163,-600.6935 190,-582.6935 217,-600.6935 190,-618.6935"/>
<text text-anchor="middle" x="190" y="-596.4935" font-family="Times,serif" font-size="14.00" fill="#000000">fh</text>
</g>
<!-- zt&#45;&gt;fh -->
<g id="edge46" class="edge">
<title>zt-&gt;fh</title>
<path fill="none" stroke="#000000" d="M234.5813,-1000.5556C205.9307,-975.447 152,-920.1988 152,-860.0757 152,-860.0757 152,-860.0757 152,-773.078 152,-719.1536 169.9522,-657.9183 181.1783,-624.8974"/>
<polygon fill="#000000" stroke="#000000" points="184.5676,-625.8076 184.5555,-615.2127 177.9579,-623.5026 184.5676,-625.8076"/>
</g>
<!-- jr -->
<g id="node3" class="node">
<title>jr</title>
<polygon fill="none" stroke="#000000" points="884,-108 857,-90 884,-72 911,-90 884,-108"/>
<text text-anchor="middle" x="884" y="-85.8" font-family="Times,serif" font-size="14.00" fill="#000000">jr</text>
</g>
<!-- gt -->
<g id="node4" class="node">
<title>gt</title>
<ellipse fill="none" stroke="#000000" cx="796" cy="-860.0757" rx="18.5887" ry="18.5887"/>
<ellipse fill="none" stroke="#000000" cx="796" cy="-860.0757" rx="22.5974" ry="22.5974"/>
<text text-anchor="middle" x="796" y="-855.8757" font-family="Times,serif" font-size="14.00" fill="#000000">gt</text>
</g>
<!-- jr&#45;&gt;gt -->
<g id="edge2" class="edge">
<title>jr-&gt;gt</title>
<path fill="none" stroke="#000000" d="M864.1861,-95.061C798.0435,-112.5285 589,-172.5919 589,-234 589,-686.0804 589,-686.0804 589,-686.0804 589,-741.8636 602.2543,-761.283 643,-799.3823 677.0489,-831.2196 729.8284,-847.1265 763.643,-854.478"/>
<polygon fill="#000000" stroke="#000000" points="762.9878,-857.9164 773.4866,-856.493 764.3917,-851.0586 762.9878,-857.9164"/>
</g>
<!-- hv -->
<g id="node5" class="node">
<title>hv</title>
<polygon fill="none" stroke="#000000" points="901,-36 871.9682,-18 901,0 930.0318,-18 901,-36"/>
<text text-anchor="middle" x="901" y="-13.8" font-family="Times,serif" font-size="14.00" fill="#000000">hv</text>
</g>
<!-- jr&#45;&gt;hv -->
<g id="edge3" class="edge">
<title>jr-&gt;hv</title>
<path fill="none" stroke="#000000" d="M887.6887,-74.3771C889.7761,-65.5366 892.4406,-54.2516 894.8366,-44.104"/>
<polygon fill="#000000" stroke="#000000" points="898.3091,-44.6277 897.2007,-34.091 891.4964,-43.0191 898.3091,-44.6277"/>
</g>
<!-- ct -->
<g id="node31" class="node">
<title>ct</title>
<ellipse fill="none" stroke="#000000" cx="1017" cy="-773.078" rx="18.0125" ry="18.0125"/>
<ellipse fill="none" stroke="#000000" cx="1017" cy="-773.078" rx="22.0138" ry="22.0138"/>
<text text-anchor="middle" x="1017" y="-768.878" font-family="Times,serif" font-size="14.00" fill="#000000">ct</text>
</g>
<!-- gt&#45;&gt;ct -->
<g id="edge41" class="edge">
<title>gt-&gt;ct</title>
<path fill="none" stroke="#000000" d="M818.2469,-855.1788C853.9127,-846.8089 925.5108,-827.8496 981,-799.3823 984.5404,-797.5659 988.1106,-795.4184 991.5558,-793.1459"/>
<polygon fill="#000000" stroke="#000000" points="993.6143,-795.9772 999.7743,-787.3572 989.5833,-790.2543 993.6143,-795.9772"/>
</g>
<!-- pm -->
<g id="node37" class="node">
<title>pm</title>
<polygon fill="none" stroke="#000000" points="716,-618.6935 682.8794,-600.6935 716,-582.6935 749.1206,-600.6935 716,-618.6935"/>
<text text-anchor="middle" x="716" y="-596.4935" font-family="Times,serif" font-size="14.00" fill="#000000">pm</text>
</g>
<!-- gt&#45;&gt;pm -->
<g id="edge36" class="edge">
<title>gt-&gt;pm</title>
<path fill="none" stroke="#000000" d="M783.933,-841.0246C776.9905,-829.37 768.5677,-813.9464 763,-799.3823 740.3235,-740.0643 726.3676,-666.4612 720.0325,-627.6189"/>
<polygon fill="#000000" stroke="#000000" points="723.4708,-626.9538 718.4468,-617.6259 716.5573,-628.0509 723.4708,-626.9538"/>
</g>
<!-- xh -->
<g id="node38" class="node">
<title>xh</title>
<polygon fill="none" stroke="#000000" points="796,-468 766.9682,-450 796,-432 825.0318,-450 796,-468"/>
<text text-anchor="middle" x="796" y="-445.8" font-family="Times,serif" font-size="14.00" fill="#000000">xh</text>
</g>
<!-- gt&#45;&gt;xh -->
<g id="edge37" class="edge">
<title>gt-&gt;xh</title>
<path fill="none" stroke="#000000" d="M800.0294,-837.6378C805.6067,-804.5772 815,-740.7771 815,-686.0804 815,-686.0804 815,-686.0804 815,-600.6935 815,-556.7764 806.9583,-506.2215 801.3384,-476.2533"/>
<polygon fill="#000000" stroke="#000000" points="804.7286,-475.3496 799.3968,-466.1942 797.8555,-476.6763 804.7286,-475.3496"/>
</g>
<!-- gp -->
<g id="node39" class="node">
<title>gp</title>
<polygon fill="none" stroke="#000000" points="851,-252 821.9682,-234 851,-216 880.0318,-234 851,-252"/>
<text text-anchor="middle" x="851" y="-229.8" font-family="Times,serif" font-size="14.00" fill="#000000">gp</text>
</g>
<!-- gt&#45;&gt;gp -->
<g id="edge38" class="edge">
<title>gt-&gt;gp</title>
<path fill="none" stroke="#000000" d="M775.2773,-850.831C730.1494,-829.1259 627,-770.3026 627,-686.0804 627,-686.0804 627,-686.0804 627,-378 627,-288.627 754.7337,-252.1181 817.2869,-239.5976"/>
<polygon fill="#000000" stroke="#000000" points="818.2838,-242.9706 827.4514,-237.6598 816.9729,-236.0945 818.2838,-242.9706"/>
</g>
<!-- nn -->
<g id="node40" class="node">
<title>nn</title>
<polygon fill="none" stroke="#000000" points="532,-791.078 502.9682,-773.078 532,-755.078 561.0318,-773.078 532,-791.078"/>
<text text-anchor="middle" x="532" y="-768.878" font-family="Times,serif" font-size="14.00" fill="#000000">nn</text>
</g>
<!-- gt&#45;&gt;nn -->
<g id="edge39" class="edge">
<title>gt-&gt;nn</title>
<path fill="none" stroke="#000000" d="M773.6618,-856.1025C732.973,-848.3988 644.5603,-829.4922 575,-799.3823 568.0932,-796.3926 560.9742,-792.443 554.565,-788.516"/>
<polygon fill="#000000" stroke="#000000" points="556.0981,-785.3415 545.7901,-782.8928 552.3212,-791.2352 556.0981,-785.3415"/>
</g>
<!-- bv -->
<g id="node41" class="node">
<title>bv</title>
<polygon fill="none" stroke="#000000" points="796,-956.7692 766.9682,-938.7692 796,-920.7692 825.0318,-938.7692 796,-956.7692"/>
<text text-anchor="middle" x="796" y="-934.5692" font-family="Times,serif" font-size="14.00" fill="#000000">bv</text>
</g>
<!-- gt&#45;&gt;bv -->
<g id="edge40" class="edge">
<title>gt-&gt;bv</title>
<path fill="none" stroke="#000000" d="M802.1197,-881.9489C802.886,-891.889 802.9536,-903.6963 802.3223,-913.9655"/>
<polygon fill="#000000" stroke="#000000" points="798.8329,-913.6913 801.4115,-923.9675 805.804,-914.3262 798.8329,-913.6913"/>
</g>
<!-- hv&#45;&gt;gt -->
<g id="edge24" class="edge">
<title>hv-&gt;gt</title>
<path fill="none" stroke="#000000" d="M911.024,-30.2272C929.4873,-54.0305 967,-108.9235 967,-162 967,-686.0804 967,-686.0804 967,-686.0804 967,-742.2517 950.1879,-759.1389 911,-799.3823 887.5023,-823.5128 852.3336,-840.1316 827.0785,-849.7982"/>
<polygon fill="#000000" stroke="#000000" points="825.7755,-846.5481 817.5957,-853.2816 828.1892,-853.1188 825.7755,-846.5481"/>
</g>
<!-- qh -->
<g id="node6" class="node">
<title>qh</title>
<polygon fill="none" stroke="#000000" points="834,-396 804.9682,-378 834,-360 863.0318,-378 834,-396"/>
<text text-anchor="middle" x="834" y="-373.8" font-family="Times,serif" font-size="14.00" fill="#000000">qh</text>
</g>
<!-- qh&#45;&gt;gt -->
<g id="edge4" class="edge">
<title>qh-&gt;gt</title>
<path fill="none" stroke="#000000" d="M837.4849,-393.8913C842.97,-420.3333 853,-475.097 853,-522 853,-686.0804 853,-686.0804 853,-686.0804 853,-739.1692 828.7395,-797.0443 811.8735,-830.8648"/>
<polygon fill="#000000" stroke="#000000" points="808.5624,-829.6524 807.1255,-840.1494 814.7948,-832.8396 808.5624,-829.6524"/>
</g>
<!-- kt -->
<g id="node7" class="node">
<title>kt</title>
<polygon fill="none" stroke="#000000" points="851,-324 824,-306 851,-288 878,-306 851,-324"/>
<text text-anchor="middle" x="851" y="-301.8" font-family="Times,serif" font-size="14.00" fill="#000000">kt</text>
</g>
<!-- qh&#45;&gt;kt -->
<g id="edge5" class="edge">
<title>qh-&gt;kt</title>
<path fill="none" stroke="#000000" d="M837.7729,-362.0209C839.8637,-353.1654 842.5142,-341.94 844.8925,-331.8669"/>
<polygon fill="#000000" stroke="#000000" points="848.346,-332.4712 847.2377,-321.9345 841.5334,-330.8626 848.346,-332.4712"/>
</g>
<!-- kt&#45;&gt;gt -->
<g id="edge103" class="edge">
<title>kt-&gt;gt</title>
<path fill="none" stroke="#000000" d="M857.6052,-319.9485C868.9663,-345.2592 891,-400.7015 891,-450 891,-686.0804 891,-686.0804 891,-686.0804 891,-739.7852 876.4461,-753.2203 849,-799.3823 840.946,-812.9284 829.7168,-826.3059 819.6666,-837.0398"/>
<polygon fill="#000000" stroke="#000000" points="817.0379,-834.7238 812.6192,-844.3532 822.0785,-839.581 817.0379,-834.7238"/>
</g>
<!-- kt&#45;&gt;gp -->
<g id="edge102" class="edge">
<title>kt-&gt;gp</title>
<path fill="none" stroke="#000000" d="M851,-287.8314C851,-280.131 851,-270.9743 851,-262.4166"/>
<polygon fill="#000000" stroke="#000000" points="854.5001,-262.4132 851,-252.4133 847.5001,-262.4133 854.5001,-262.4132"/>
</g>
<!-- hr -->
<g id="node8" class="node">
<title>hr</title>
<polygon fill="none" stroke="#000000" points="245,-791.078 218,-773.078 245,-755.078 272,-773.078 245,-791.078"/>
<text text-anchor="middle" x="245" y="-768.878" font-family="Times,serif" font-size="14.00" fill="#000000">hr</text>
</g>
<!-- hr&#45;&gt;zt -->
<g id="edge7" class="edge">
<title>hr-&gt;zt</title>
<path fill="none" stroke="#000000" d="M245.211,-791.2657C245.4941,-813.373 246.0713,-851.8126 247,-884.7692 247.9395,-918.1075 249.4586,-956.2384 250.5762,-982.5423"/>
<polygon fill="#000000" stroke="#000000" points="247.0864,-982.8571 251.0127,-992.6976 254.0799,-982.5565 247.0864,-982.8571"/>
</g>
<!-- hg -->
<g id="node9" class="node">
<title>hg</title>
<polygon fill="none" stroke="#000000" points="209,-704.0804 179.9682,-686.0804 209,-668.0804 238.0318,-686.0804 209,-704.0804"/>
<text text-anchor="middle" x="209" y="-681.8804" font-family="Times,serif" font-size="14.00" fill="#000000">hg</text>
</g>
<!-- hr&#45;&gt;hg -->
<g id="edge6" class="edge">
<title>hr-&gt;hg</title>
<path fill="none" stroke="#000000" d="M239.0553,-758.7121C233.5837,-745.4893 225.3614,-725.6194 218.8993,-710.003"/>
<polygon fill="#000000" stroke="#000000" points="222.0112,-708.3695 214.9535,-700.4676 215.5431,-711.046 222.0112,-708.3695"/>
</g>
<!-- hg&#45;&gt;zt -->
<g id="edge101" class="edge">
<title>hg-&gt;zt</title>
<path fill="none" stroke="#000000" d="M207.9251,-703.7961C206.816,-726.1406 205.6721,-765.7131 209,-799.3823 215.5525,-865.6752 233.1861,-941.7945 243.7259,-983.4581"/>
<polygon fill="#000000" stroke="#000000" points="240.37,-984.4622 246.2416,-993.2812 247.1512,-982.7255 240.37,-984.4622"/>
</g>
<!-- hg&#45;&gt;fh -->
<g id="edge100" class="edge">
<title>hg-&gt;fh</title>
<path fill="none" stroke="#000000" d="M205.4262,-670.0197C202.7022,-657.7778 198.8958,-640.6716 195.7457,-626.5149"/>
<polygon fill="#000000" stroke="#000000" points="199.0821,-625.3946 193.4935,-616.3936 192.2492,-626.9151 199.0821,-625.3946"/>
</g>
<!-- px -->
<g id="node10" class="node">
<title>px</title>
<polygon fill="none" stroke="#000000" points="1447,-540 1417.9682,-522 1447,-504 1476.0318,-522 1447,-540"/>
<text text-anchor="middle" x="1447" y="-517.8" font-family="Times,serif" font-size="14.00" fill="#000000">px</text>
</g>
<!-- nl -->
<g id="node11" class="node">
<title>nl</title>
<polygon fill="none" stroke="#000000" points="1407,-468 1380,-450 1407,-432 1434,-450 1407,-468"/>
<text text-anchor="middle" x="1407" y="-445.8" font-family="Times,serif" font-size="14.00" fill="#000000">nl</text>
</g>
<!-- px&#45;&gt;nl -->
<g id="edge8" class="edge">
<title>px-&gt;nl</title>
<path fill="none" stroke="#000000" d="M1439.4763,-508.4574C1433.8334,-498.3002 1425.9844,-484.1718 1419.4162,-472.3492"/>
<polygon fill="#000000" stroke="#000000" points="1422.406,-470.5237 1414.49,-463.4819 1416.2869,-473.9233 1422.406,-470.5237"/>
</g>
<!-- hz -->
<g id="node24" class="node">
<title>hz</title>
<polygon fill="none" stroke="#000000" points="1370,-396 1341.5024,-378 1370,-360 1398.4976,-378 1370,-396"/>
<text text-anchor="middle" x="1370" y="-373.8" font-family="Times,serif" font-size="14.00" fill="#000000">hz</text>
</g>
<!-- nl&#45;&gt;hz -->
<g id="edge19" class="edge">
<title>nl-&gt;hz</title>
<path fill="none" stroke="#000000" d="M1400.0406,-436.4574C1394.938,-426.528 1387.8853,-412.8037 1381.8957,-401.1483"/>
<polygon fill="#000000" stroke="#000000" points="1384.8643,-399.2676 1377.1806,-391.973 1378.6383,-402.4671 1384.8643,-399.2676"/>
</g>
<!-- fx -->
<g id="node12" class="node">
<title>fx</title>
<polygon fill="none" stroke="#000000" points="1821,-618.6935 1794,-600.6935 1821,-582.6935 1848,-600.6935 1821,-618.6935"/>
<text text-anchor="middle" x="1821" y="-596.4935" font-family="Times,serif" font-size="14.00" fill="#000000">fx</text>
</g>
<!-- mv -->
<g id="node13" class="node">
<title>mv</title>
<polygon fill="none" stroke="#000000" points="1805,-540 1771.8794,-522 1805,-504 1838.1206,-522 1805,-540"/>
<text text-anchor="middle" x="1805" y="-517.8" font-family="Times,serif" font-size="14.00" fill="#000000">mv</text>
</g>
<!-- fx&#45;&gt;mv -->
<g id="edge9" class="edge">
<title>fx-&gt;mv</title>
<path fill="none" stroke="#000000" d="M1817.7622,-584.7687C1815.6434,-574.3479 1812.824,-560.4809 1810.3741,-548.4315"/>
<polygon fill="#000000" stroke="#000000" points="1813.7655,-547.5449 1808.3432,-538.4428 1806.9059,-548.9397 1813.7655,-547.5449"/>
</g>
<!-- xd -->
<g id="node16" class="node">
<title>xd</title>
<ellipse fill="none" stroke="#000000" cx="1827" cy="-860.0757" rx="20.8568" ry="20.8568"/>
<ellipse fill="none" stroke="#000000" cx="1827" cy="-860.0757" rx="24.8884" ry="24.8884"/>
<text text-anchor="middle" x="1827" y="-855.8757" font-family="Times,serif" font-size="14.00" fill="#000000">xd</text>
</g>
<!-- mv&#45;&gt;xd -->
<g id="edge12" class="edge">
<title>mv-&gt;xd</title>
<path fill="none" stroke="#000000" d="M1798.1241,-536.275C1793.3842,-546.9402 1787.5046,-562.0264 1785,-576 1781.1275,-597.6054 1783.059,-603.5232 1785,-625.3869 1791.4008,-697.4887 1808.6559,-780.5998 1818.9488,-826.0327"/>
<polygon fill="#000000" stroke="#000000" points="1815.5739,-826.9751 1821.2189,-835.9408 1822.3971,-825.4117 1815.5739,-826.9751"/>
</g>
<!-- ss -->
<g id="node17" class="node">
<title>ss</title>
<polygon fill="none" stroke="#000000" points="1805,-468 1778,-450 1805,-432 1832,-450 1805,-468"/>
<text text-anchor="middle" x="1805" y="-445.8" font-family="Times,serif" font-size="14.00" fill="#000000">ss</text>
</g>
<!-- mv&#45;&gt;ss -->
<g id="edge13" class="edge">
<title>mv-&gt;ss</title>
<path fill="none" stroke="#000000" d="M1805,-503.8314C1805,-496.131 1805,-486.9743 1805,-478.4166"/>
<polygon fill="#000000" stroke="#000000" points="1808.5001,-478.4132 1805,-468.4133 1801.5001,-478.4133 1808.5001,-478.4132"/>
</g>
<!-- tz -->
<g id="node14" class="node">
<title>tz</title>
<polygon fill="none" stroke="#000000" points="161,-396 134,-378 161,-360 188,-378 161,-396"/>
<text text-anchor="middle" x="161" y="-373.8" font-family="Times,serif" font-size="14.00" fill="#000000">tz</text>
</g>
<!-- tz&#45;&gt;zt -->
<g id="edge11" class="edge">
<title>tz-&gt;zt</title>
<path fill="none" stroke="#000000" d="M149.1811,-388.6458C125.8254,-410.9181 76,-465.1003 76,-522 76,-860.0757 76,-860.0757 76,-860.0757 76,-908.8708 92.5466,-923.2428 128,-956.7692 154.3371,-981.6747 193.3047,-997.4933 220.5053,-1006.2124"/>
<polygon fill="#000000" stroke="#000000" points="219.7167,-1009.6312 230.3032,-1009.2106 221.765,-1002.9376 219.7167,-1009.6312"/>
</g>
<!-- tz&#45;&gt;jl -->
<g id="edge10" class="edge">
<title>tz-&gt;jl</title>
<path fill="none" stroke="#000000" d="M174.8049,-368.8812C193.2326,-356.7087 226.0818,-335.0102 247.9568,-320.5606"/>
<polygon fill="#000000" stroke="#000000" points="249.8922,-323.4769 256.3072,-315.0448 246.0341,-317.6361 249.8922,-323.4769"/>
</g>
<!-- cb -->
<g id="node18" class="node">
<title>cb</title>
<polygon fill="none" stroke="#000000" points="270,-252 241.5024,-234 270,-216 298.4976,-234 270,-252"/>
<text text-anchor="middle" x="270" y="-229.8" font-family="Times,serif" font-size="14.00" fill="#000000">cb</text>
</g>
<!-- jl&#45;&gt;cb -->
<g id="edge67" class="edge">
<title>jl-&gt;cb</title>
<path fill="none" stroke="#000000" d="M270,-287.8314C270,-280.131 270,-270.9743 270,-262.4166"/>
<polygon fill="#000000" stroke="#000000" points="273.5001,-262.4132 270,-252.4133 266.5001,-262.4133 273.5001,-262.4132"/>
</g>
<!-- xd&#45;&gt;fx -->
<g id="edge34" class="edge">
<title>xd-&gt;fx</title>
<path fill="none" stroke="#000000" d="M1826.2693,-835.245C1825.4126,-805.6178 1823.9848,-754.5841 1823,-710.7738 1822.3724,-682.856 1821.8098,-650.9521 1821.4424,-628.7037"/>
<polygon fill="#000000" stroke="#000000" points="1824.9406,-628.5589 1821.2782,-618.6172 1817.9415,-628.6728 1824.9406,-628.5589"/>
</g>
<!-- xd&#45;&gt;ss -->
<g id="edge30" class="edge">
<title>xd-&gt;ss</title>
<path fill="none" stroke="#000000" d="M1808.8419,-842.6623C1780.2614,-813.2836 1728,-750.7245 1728,-686.0804 1728,-686.0804 1728,-686.0804 1728,-600.6935 1728,-548.4679 1765.1268,-496.112 1787.82,-468.9882"/>
<polygon fill="#000000" stroke="#000000" points="1790.74,-470.9612 1794.6154,-461.1005 1785.4367,-466.3922 1790.74,-470.9612"/>
</g>
<!-- sn -->
<g id="node20" class="node">
<title>sn</title>
<polygon fill="none" stroke="#000000" points="1917,-252 1889.0024,-234 1917,-216 1944.9976,-234 1917,-252"/>
<text text-anchor="middle" x="1917" y="-229.8" font-family="Times,serif" font-size="14.00" fill="#000000">sn</text>
</g>
<!-- xd&#45;&gt;sn -->
<g id="edge31" class="edge">
<title>xd-&gt;sn</title>
<path fill="none" stroke="#000000" d="M1850.5092,-851.8145C1874.5821,-842.3489 1911.8044,-824.7941 1936,-799.3823 1974.7337,-758.7015 1992,-742.2517 1992,-686.0804 1992,-686.0804 1992,-686.0804 1992,-378 1992,-328.4019 1956.5681,-278.9553 1934.4112,-252.8833"/>
<polygon fill="#000000" stroke="#000000" points="1936.966,-250.488 1927.7457,-245.2691 1931.6991,-255.0988 1936.966,-250.488"/>
</g>
<!-- kp -->
<g id="node33" class="node">
<title>kp</title>
<ellipse fill="none" stroke="#000000" cx="1120" cy="-686.0804" rx="20.8568" ry="20.8568"/>
<ellipse fill="none" stroke="#000000" cx="1120" cy="-686.0804" rx="24.8884" ry="24.8884"/>
<text text-anchor="middle" x="1120" y="-681.8804" font-family="Times,serif" font-size="14.00" fill="#000000">kp</text>
</g>
<!-- xd&#45;&gt;kp -->
<g id="edge28" class="edge">
<title>xd-&gt;kp</title>
<path fill="none" stroke="#000000" d="M1802.1935,-859.3668C1731.1938,-856.8129 1521.588,-845.6004 1355,-799.3823 1260.5328,-773.1733 1237.69,-760.1556 1153,-710.7738 1151.2846,-709.7736 1149.5534,-708.7001 1147.8299,-707.5809"/>
<polygon fill="#000000" stroke="#000000" points="1149.5995,-704.5491 1139.386,-701.7324 1145.6138,-710.3036 1149.5995,-704.5491"/>
</g>
<!-- bg -->
<g id="node34" class="node">
<title>bg</title>
<polygon fill="none" stroke="#000000" points="1897,-396 1867.9682,-378 1897,-360 1926.0318,-378 1897,-396"/>
<text text-anchor="middle" x="1897" y="-373.8" font-family="Times,serif" font-size="14.00" fill="#000000">bg</text>
</g>
<!-- xd&#45;&gt;bg -->
<g id="edge29" class="edge">
<title>xd-&gt;bg</title>
<path fill="none" stroke="#000000" d="M1843.7402,-841.8333C1869.5213,-811.7643 1916,-748.8507 1916,-686.0804 1916,-686.0804 1916,-686.0804 1916,-522 1916,-480.4102 1908.1137,-432.6398 1902.5028,-403.9152"/>
<polygon fill="#000000" stroke="#000000" points="1905.8896,-403.0039 1900.4849,-393.8913 1899.0273,-404.3854 1905.8896,-403.0039"/>
</g>
<!-- mf -->
<g id="node35" class="node">
<title>mf</title>
<polygon fill="none" stroke="#000000" points="1827,-956.7692 1796.4421,-938.7692 1827,-920.7692 1857.5579,-938.7692 1827,-956.7692"/>
<text text-anchor="middle" x="1827" y="-934.5692" font-family="Times,serif" font-size="14.00" fill="#000000">mf</text>
</g>
<!-- xd&#45;&gt;mf -->
<g id="edge32" class="edge">
<title>xd-&gt;mf</title>
<path fill="none" stroke="#000000" d="M1833.2781,-884.1809C1833.8849,-893.5125 1833.9065,-904.1969 1833.3429,-913.6248"/>
<polygon fill="#000000" stroke="#000000" points="1829.8558,-913.326 1832.458,-923.5963 1836.8284,-913.9449 1829.8558,-913.326"/>
</g>
<!-- qb -->
<g id="node36" class="node">
<title>qb</title>
<polygon fill="none" stroke="#000000" points="2049,-791.078 2019.9682,-773.078 2049,-755.078 2078.0318,-773.078 2049,-791.078"/>
<text text-anchor="middle" x="2049" y="-768.878" font-family="Times,serif" font-size="14.00" fill="#000000">qb</text>
</g>
<!-- xd&#45;&gt;qb -->
<g id="edge33" class="edge">
<title>xd-&gt;qb</title>
<path fill="none" stroke="#000000" d="M1851.1098,-853.7473C1886.1156,-844.1507 1952.6575,-824.3615 2006,-799.3823 2012.8158,-796.1906 2019.905,-792.1747 2026.3146,-788.2487"/>
<polygon fill="#000000" stroke="#000000" points="2028.541,-790.9812 2035.1084,-782.6673 2024.7898,-785.0711 2028.541,-790.9812"/>
</g>
<!-- ss&#45;&gt;bg -->
<g id="edge42" class="edge">
<title>ss-&gt;bg</title>
<path fill="none" stroke="#000000" d="M1817.7922,-439.9887C1832.8125,-428.2337 1857.9474,-408.5629 1875.8743,-394.5332"/>
<polygon fill="#000000" stroke="#000000" points="1878.3019,-397.0778 1884.0199,-388.1584 1873.9877,-391.5652 1878.3019,-397.0778"/>
</g>
<!-- cb&#45;&gt;zt -->
<g id="edge15" class="edge">
<title>cb-&gt;zt</title>
<path fill="none" stroke="#000000" d="M291.9386,-238.428C344.823,-250.5135 475,-289.2737 475,-378 475,-860.0757 475,-860.0757 475,-860.0757 475,-903.8724 485.6572,-924.5419 456,-956.7692 432.732,-982.0535 334.9575,-1001.3029 283.6852,-1009.8774"/>
<polygon fill="#000000" stroke="#000000" points="283.0937,-1006.4276 273.7899,-1011.4961 284.2238,-1013.3357 283.0937,-1006.4276"/>
</g>
<!-- sj -->
<g id="node19" class="node">
<title>sj</title>
<polygon fill="none" stroke="#000000" points="38,-180 11,-162 38,-144 65,-162 38,-180"/>
<text text-anchor="middle" x="38" y="-157.8" font-family="Times,serif" font-size="14.00" fill="#000000">sj</text>
</g>
<!-- cb&#45;&gt;sj -->
<g id="edge14" class="edge">
<title>cb-&gt;sj</title>
<path fill="none" stroke="#000000" d="M250.6188,-227.9852C209.6293,-215.2643 114.0041,-185.5875 66.222,-170.7586"/>
<polygon fill="#000000" stroke="#000000" points="67.1052,-167.368 56.5172,-167.7467 65.0304,-174.0535 67.1052,-167.368"/>
</g>
<!-- sj&#45;&gt;mq -->
<g id="edge61" class="edge">
<title>sj-&gt;mq</title>
<path fill="none" stroke="#000000" d="M31.7251,-175.9828C20.932,-201.3481 0,-256.8739 0,-306 0,-938.7692 0,-938.7692 0,-938.7692 0,-1003.3724 68.8802,-1053.7196 107.5013,-1076.8717"/>
<polygon fill="#000000" stroke="#000000" points="105.7522,-1079.9032 116.1555,-1081.9089 109.2736,-1073.8534 105.7522,-1079.9032"/>
</g>
<!-- sj&#45;&gt;zt -->
<g id="edge62" class="edge">
<title>sj-&gt;zt</title>
<path fill="none" stroke="#000000" d="M38,-180.1854C38,-207.5017 38,-260.75 38,-306 38,-860.0757 38,-860.0757 38,-860.0757 38,-909.0829 53.7584,-924.9138 91,-956.7692 128.341,-988.7096 184.6329,-1003.5908 219.8032,-1010.1237"/>
<polygon fill="#000000" stroke="#000000" points="219.5445,-1013.631 229.9957,-1011.8927 220.7416,-1006.7341 219.5445,-1013.631"/>
</g>
<!-- kx -->
<g id="node21" class="node">
<title>kx</title>
<polygon fill="none" stroke="#000000" points="1813,-180 1783.9682,-162 1813,-144 1842.0318,-162 1813,-180"/>
<text text-anchor="middle" x="1813" y="-157.8" font-family="Times,serif" font-size="14.00" fill="#000000">kx</text>
</g>
<!-- sn&#45;&gt;kx -->
<g id="edge16" class="edge">
<title>sn-&gt;kx</title>
<path fill="none" stroke="#000000" d="M1903.4038,-224.5873C1886.1375,-212.6337 1856.1078,-191.8439 1835.4269,-177.5263"/>
<polygon fill="#000000" stroke="#000000" points="1837.1456,-174.4593 1826.9315,-171.6449 1833.1612,-180.2147 1837.1456,-174.4593"/>
</g>
<!-- kx&#45;&gt;xd -->
<g id="edge96" class="edge">
<title>kx-&gt;xd</title>
<path fill="none" stroke="#000000" d="M1797.422,-170.5067C1764.3244,-189.85 1690,-240.5716 1690,-306 1690,-686.0804 1690,-686.0804 1690,-686.0804 1690,-740.7693 1703.336,-757.0823 1738,-799.3823 1753.6883,-818.5265 1776.9417,-834.0975 1795.7455,-844.6734"/>
<polygon fill="#000000" stroke="#000000" points="1794.1074,-847.7665 1804.5664,-849.4577 1797.4448,-841.6133 1794.1074,-847.7665"/>
</g>
<!-- dp -->
<g id="node25" class="node">
<title>dp</title>
<polygon fill="none" stroke="#000000" points="1813,-108 1783.9682,-90 1813,-72 1842.0318,-90 1813,-108"/>
<text text-anchor="middle" x="1813" y="-85.8" font-family="Times,serif" font-size="14.00" fill="#000000">dp</text>
</g>
<!-- kx&#45;&gt;dp -->
<g id="edge95" class="edge">
<title>kx-&gt;dp</title>
<path fill="none" stroke="#000000" d="M1813,-143.8314C1813,-136.131 1813,-126.9743 1813,-118.4166"/>
<polygon fill="#000000" stroke="#000000" points="1816.5001,-118.4132 1813,-108.4133 1809.5001,-118.4133 1816.5001,-118.4132"/>
</g>
<!-- xp -->
<g id="node22" class="node">
<title>xp</title>
<polygon fill="none" stroke="#000000" points="190,-540 160.9682,-522 190,-504 219.0318,-522 190,-540"/>
<text text-anchor="middle" x="190" y="-517.8" font-family="Times,serif" font-size="14.00" fill="#000000">xp</text>
</g>
<!-- xp&#45;&gt;zt -->
<g id="edge18" class="edge">
<title>xp-&gt;zt</title>
<path fill="none" stroke="#000000" d="M206.556,-529.9017C245.9511,-549.987 342,-607.0596 342,-686.0804 342,-773.078 342,-773.078 342,-773.078 342,-823.4317 339.5158,-837.2011 323,-884.7692 309.9282,-922.418 286.6648,-962.126 270.3387,-987.6039"/>
<polygon fill="#000000" stroke="#000000" points="267.1899,-986.0258 264.6695,-996.3165 273.0571,-989.8436 267.1899,-986.0258"/>
</g>
<!-- vl -->
<g id="node23" class="node">
<title>vl</title>
<polygon fill="none" stroke="#000000" points="161,-468 134,-450 161,-432 188,-450 161,-468"/>
<text text-anchor="middle" x="161" y="-445.8" font-family="Times,serif" font-size="14.00" fill="#000000">vl</text>
</g>
<!-- xp&#45;&gt;vl -->
<g id="edge17" class="edge">
<title>xp-&gt;vl</title>
<path fill="none" stroke="#000000" d="M184.1314,-507.4297C180.2793,-497.8658 175.1493,-485.1292 170.6993,-474.0809"/>
<polygon fill="#000000" stroke="#000000" points="173.8426,-472.5168 166.8599,-464.5486 167.3495,-475.1321 173.8426,-472.5168"/>
</g>
<!-- vl&#45;&gt;zt -->
<g id="edge70" class="edge">
<title>vl-&gt;zt</title>
<path fill="none" stroke="#000000" d="M153.8617,-463.2774C140.7136,-489.0105 114,-547.8018 114,-600.6935 114,-860.0757 114,-860.0757 114,-860.0757 114,-908.4562 131.6423,-920.8019 164,-956.7692 180.6464,-975.2725 204.4465,-990.489 223.0991,-1000.6878"/>
<polygon fill="#000000" stroke="#000000" points="221.5762,-1003.8417 232.0529,-1005.4191 224.8465,-997.6526 221.5762,-1003.8417"/>
</g>
<!-- vl&#45;&gt;tz -->
<g id="edge71" class="edge">
<title>vl-&gt;tz</title>
<path fill="none" stroke="#000000" d="M161,-431.8314C161,-424.131 161,-414.9743 161,-406.4166"/>
<polygon fill="#000000" stroke="#000000" points="164.5001,-406.4132 161,-396.4133 157.5001,-406.4133 164.5001,-406.4132"/>
</g>
<!-- ms -->
<g id="node29" class="node">
<title>ms</title>
<ellipse fill="none" stroke="#000000" cx="1390" cy="-773.078" rx="22.1395" ry="22.1395"/>
<ellipse fill="none" stroke="#000000" cx="1390" cy="-773.078" rx="26.1099" ry="26.1099"/>
<text text-anchor="middle" x="1390" y="-768.878" font-family="Times,serif" font-size="14.00" fill="#000000">ms</text>
</g>
<!-- hz&#45;&gt;ms -->
<g id="edge104" class="edge">
<title>hz-&gt;ms</title>
<path fill="none" stroke="#000000" d="M1366.6143,-394.3297C1361.4002,-420.9446 1352,-475.3901 1352,-522 1352,-600.6935 1352,-600.6935 1352,-600.6935 1352,-649.5062 1366.71,-704.3094 1377.8255,-738.7532"/>
<polygon fill="#000000" stroke="#000000" points="1374.5308,-739.9381 1380.9945,-748.3328 1381.1766,-737.7396 1374.5308,-739.9381"/>
</g>
<!-- vg -->
<g id="node46" class="node">
<title>vg</title>
<polygon fill="none" stroke="#000000" points="1351,-324 1321.9682,-306 1351,-288 1380.0318,-306 1351,-324"/>
<text text-anchor="middle" x="1351" y="-301.8" font-family="Times,serif" font-size="14.00" fill="#000000">vg</text>
</g>
<!-- hz&#45;&gt;vg -->
<g id="edge105" class="edge">
<title>hz-&gt;vg</title>
<path fill="none" stroke="#000000" d="M1365.8773,-362.3771C1363.4871,-353.3195 1360.4197,-341.6958 1357.6918,-331.3584"/>
<polygon fill="#000000" stroke="#000000" points="1361.0504,-330.3684 1355.1147,-321.5924 1354.2821,-332.1545 1361.0504,-330.3684"/>
</g>
<!-- dp&#45;&gt;xd -->
<g id="edge21" class="edge">
<title>dp-&gt;xd</title>
<path fill="none" stroke="#000000" d="M1794.2162,-96.5263C1751.7461,-112.6126 1652,-158.4367 1652,-234 1652,-686.0804 1652,-686.0804 1652,-686.0804 1652,-740.2631 1659.8285,-759.9609 1697,-799.3823 1722.9856,-826.9407 1763.9715,-843.175 1792.9672,-851.8143"/>
<polygon fill="#000000" stroke="#000000" points="1792.1041,-855.2074 1802.6791,-854.5596 1794.0082,-848.4714 1792.1041,-855.2074"/>
</g>
<!-- bj -->
<g id="node26" class="node">
<title>bj</title>
<polygon fill="none" stroke="#000000" points="1959,-36 1932,-18 1959,0 1986,-18 1959,-36"/>
<text text-anchor="middle" x="1959" y="-13.8" font-family="Times,serif" font-size="14.00" fill="#000000">bj</text>
</g>
<!-- dp&#45;&gt;bj -->
<g id="edge20" class="edge">
<title>dp-&gt;bj</title>
<path fill="none" stroke="#000000" d="M1829.1824,-82.0196C1854.6399,-69.4652 1904.2236,-45.013 1934.2005,-30.2299"/>
<polygon fill="#000000" stroke="#000000" points="1935.7682,-33.3593 1943.1889,-25.7972 1932.6722,-27.0812 1935.7682,-33.3593"/>
</g>
<!-- bj&#45;&gt;xd -->
<g id="edge92" class="edge">
<title>bj-&gt;xd</title>
<path fill="none" stroke="#000000" d="M1975.8628,-24.8857C2014.4749,-41.8979 2106,-89.8344 2106,-162 2106,-686.0804 2106,-686.0804 2106,-686.0804 2106,-737.1399 2121.9461,-762.1554 2087,-799.3823 2056.5606,-831.8083 1925.6608,-849.725 1862.0156,-856.6645"/>
<polygon fill="#000000" stroke="#000000" points="1861.2532,-853.2255 1851.6774,-857.7593 1861.9905,-860.1866 1861.2532,-853.2255"/>
</g>
<!-- zq -->
<g id="node27" class="node">
<title>zq</title>
<polygon fill="none" stroke="#000000" points="1860,-704.0804 1831.5024,-686.0804 1860,-668.0804 1888.4976,-686.0804 1860,-704.0804"/>
<text text-anchor="middle" x="1860" y="-681.8804" font-family="Times,serif" font-size="14.00" fill="#000000">zq</text>
</g>
<!-- zq&#45;&gt;fx -->
<g id="edge23" class="edge">
<title>zq-&gt;fx</title>
<path fill="none" stroke="#000000" d="M1853.5599,-671.9804C1847.5968,-658.9247 1838.6181,-639.2667 1831.5987,-623.8983"/>
<polygon fill="#000000" stroke="#000000" points="1834.6585,-622.173 1827.3202,-614.531 1828.2912,-625.0812 1834.6585,-622.173"/>
</g>
<!-- zq&#45;&gt;xd -->
<g id="edge22" class="edge">
<title>zq-&gt;xd</title>
<path fill="none" stroke="#000000" d="M1856.9415,-702.2068C1851.6407,-730.1558 1840.6357,-788.1802 1833.546,-825.5616"/>
<polygon fill="#000000" stroke="#000000" points="1830.0829,-825.0384 1831.6581,-835.5155 1836.9603,-826.3428 1830.0829,-825.0384"/>
</g>
<!-- zm -->
<g id="node28" class="node">
<title>zm</title>
<polygon fill="none" stroke="#000000" points="1459,-878.0757 1426.9105,-860.0757 1459,-842.0757 1491.0895,-860.0757 1459,-878.0757"/>
<text text-anchor="middle" x="1459" y="-855.8757" font-family="Times,serif" font-size="14.00" fill="#000000">zm</text>
</g>
<!-- zm&#45;&gt;ms -->
<g id="edge25" class="edge">
<title>zm-&gt;ms</title>
<path fill="none" stroke="#000000" d="M1449.114,-847.6111C1439.7444,-835.7976 1425.321,-817.6121 1413.0672,-802.162"/>
<polygon fill="#000000" stroke="#000000" points="1415.4849,-799.5779 1406.5286,-793.9179 1410.0005,-803.9277 1415.4849,-799.5779"/>
</g>
<!-- vr -->
<g id="node30" class="node">
<title>vr</title>
<polygon fill="none" stroke="#000000" points="1559,-704.0804 1532,-686.0804 1559,-668.0804 1586,-686.0804 1559,-704.0804"/>
<text text-anchor="middle" x="1559" y="-681.8804" font-family="Times,serif" font-size="14.00" fill="#000000">vr</text>
</g>
<!-- zm&#45;&gt;vr -->
<g id="edge26" class="edge">
<title>zm-&gt;vr</title>
<path fill="none" stroke="#000000" d="M1466.8468,-846.4226C1484.0914,-816.4178 1525.4183,-744.511 1546.3671,-708.061"/>
<polygon fill="#000000" stroke="#000000" points="1549.5148,-709.6081 1551.4633,-699.1939 1543.4457,-706.12 1549.5148,-709.6081"/>
</g>
<!-- ms&#45;&gt;px -->
<g id="edge49" class="edge">
<title>ms-&gt;px</title>
<path fill="none" stroke="#000000" d="M1395.8853,-747.154C1406.8332,-698.9299 1430.2067,-595.9724 1441.1374,-547.8241"/>
<polygon fill="#000000" stroke="#000000" points="1444.5924,-548.4143 1443.3932,-537.8876 1437.7661,-546.8646 1444.5924,-548.4143"/>
</g>
<!-- ms&#45;&gt;nl -->
<g id="edge48" class="edge">
<title>ms-&gt;nl</title>
<path fill="none" stroke="#000000" d="M1391.3912,-746.6392C1394.563,-686.3599 1402.3052,-539.2233 1405.541,-477.7273"/>
<polygon fill="#000000" stroke="#000000" points="1409.0428,-477.784 1406.0732,-467.6139 1402.0525,-477.4161 1409.0428,-477.784"/>
</g>
<!-- ms&#45;&gt;vr -->
<g id="edge51" class="edge">
<title>ms-&gt;vr</title>
<path fill="none" stroke="#000000" d="M1414.3882,-761.997C1440.3863,-750.0022 1482.5989,-730.0007 1518,-710.7738 1524.0378,-707.4946 1530.4526,-703.7575 1536.371,-700.2005"/>
<polygon fill="#000000" stroke="#000000" points="1538.4245,-703.0477 1545.1372,-694.8507 1534.7779,-697.0725 1538.4245,-703.0477"/>
</g>
<!-- br -->
<g id="node45" class="node">
<title>br</title>
<polygon fill="none" stroke="#000000" points="1483,-618.6935 1456,-600.6935 1483,-582.6935 1510,-600.6935 1483,-618.6935"/>
<text text-anchor="middle" x="1483" y="-596.4935" font-family="Times,serif" font-size="14.00" fill="#000000">br</text>
</g>
<!-- ms&#45;&gt;br -->
<g id="edge47" class="edge">
<title>ms-&gt;br</title>
<path fill="none" stroke="#000000" d="M1408.7074,-754.1675C1419.5381,-742.4327 1432.8038,-726.6136 1442,-710.7738 1457.8057,-683.5498 1469.4571,-649.1344 1476.2175,-626.0977"/>
<polygon fill="#000000" stroke="#000000" points="1479.612,-626.9564 1478.9769,-616.3807 1472.8782,-625.0442 1479.612,-626.9564"/>
</g>
<!-- ms&#45;&gt;vg -->
<g id="edge50" class="edge">
<title>ms-&gt;vg</title>
<path fill="none" stroke="#000000" d="M1373.8824,-752.086C1351.5732,-720.8738 1314,-659.5667 1314,-600.6935 1314,-600.6935 1314,-600.6935 1314,-450 1314,-406.551 1329.9969,-357.9821 1340.9537,-329.8114"/>
<polygon fill="#000000" stroke="#000000" points="1344.253,-330.9872 1344.7235,-320.4028 1337.7552,-328.3837 1344.253,-330.9872"/>
</g>
<!-- ks -->
<g id="node47" class="node">
<title>ks</title>
<ellipse fill="none" stroke="#000000" cx="1186" cy="-686.0804" rx="19.7212" ry="19.7212"/>
<ellipse fill="none" stroke="#000000" cx="1186" cy="-686.0804" rx="23.7418" ry="23.7418"/>
<text text-anchor="middle" x="1186" y="-681.8804" font-family="Times,serif" font-size="14.00" fill="#000000">ks</text>
</g>
<!-- ms&#45;&gt;ks -->
<g id="edge52" class="edge">
<title>ms-&gt;ks</title>
<path fill="none" stroke="#000000" d="M1364.5321,-765.4278C1331.3165,-755.0249 1271.8105,-734.9191 1224,-710.7738 1220.8133,-709.1645 1217.5625,-707.3499 1214.3703,-705.4533"/>
<polygon fill="#000000" stroke="#000000" points="1215.9669,-702.3239 1205.6315,-699.9937 1212.258,-708.2606 1215.9669,-702.3239"/>
</g>
<!-- fr -->
<g id="node48" class="node">
<title>fr</title>
<polygon fill="none" stroke="#000000" points="1390,-956.7692 1363,-938.7692 1390,-920.7692 1417,-938.7692 1390,-956.7692"/>
<text text-anchor="middle" x="1390" y="-934.5692" font-family="Times,serif" font-size="14.00" fill="#000000">fr</text>
</g>
<!-- ms&#45;&gt;fr -->
<g id="edge53" class="edge">
<title>ms-&gt;fr</title>
<path fill="none" stroke="#000000" d="M1395.0724,-799.1039C1397.3271,-830.3884 1397.3091,-882.5322 1395.0183,-913.4833"/>
<polygon fill="#000000" stroke="#000000" points="1391.5294,-913.2034 1394.1133,-923.4783 1398.5009,-913.8348 1391.5294,-913.2034"/>
</g>
<!-- vr&#45;&gt;br -->
<g id="edge99" class="edge">
<title>vr-&gt;br</title>
<path fill="none" stroke="#000000" d="M1548.7503,-674.5647C1536.2153,-660.4815 1514.8224,-636.4462 1499.853,-619.6279"/>
<polygon fill="#000000" stroke="#000000" points="1502.3503,-617.1694 1493.0873,-612.0267 1497.1215,-621.8234 1502.3503,-617.1694"/>
</g>
<!-- bb -->
<g id="node32" class="node">
<title>bb</title>
<ellipse fill="none" stroke="#000000" cx="1093" cy="-600.6935" rx="20.8568" ry="20.8568"/>
<ellipse fill="none" stroke="#000000" cx="1093" cy="-600.6935" rx="24.8884" ry="24.8884"/>
<text text-anchor="middle" x="1093" y="-596.4935" font-family="Times,serif" font-size="14.00" fill="#000000">bb</text>
</g>
<!-- ct&#45;&gt;bb -->
<g id="edge27" class="edge">
<title>ct-&gt;bb</title>
<path fill="none" stroke="#000000" d="M1022.1148,-751.4216C1027.97,-728.4223 1038.6376,-691.3287 1053,-661.3869 1058.3611,-650.2104 1065.4971,-638.6751 1072.2566,-628.7019"/>
<polygon fill="#000000" stroke="#000000" points="1075.2037,-630.5945 1078.0458,-620.3879 1069.4592,-626.5944 1075.2037,-630.5945"/>
</g>
<!-- rx -->
<g id="node55" class="node">
<title>rx</title>
<ellipse fill="none" stroke="#000000" cx="1093" cy="-522" rx="27" ry="18"/>
<text text-anchor="middle" x="1093" y="-517.8" font-family="Times,serif" font-size="14.00" fill="#000000">rx</text>
</g>
<!-- bb&#45;&gt;rx -->
<g id="edge73" class="edge">
<title>bb-&gt;rx</title>
<path fill="none" stroke="#000000" d="M1093,-575.7944C1093,-567.6892 1093,-558.6342 1093,-550.299"/>
<polygon fill="#000000" stroke="#000000" points="1096.5001,-550.2516 1093,-540.2517 1089.5001,-550.2517 1096.5001,-550.2516"/>
</g>
<!-- kp&#45;&gt;bb -->
<g id="edge35" class="edge">
<title>kp-&gt;bb</title>
<path fill="none" stroke="#000000" d="M1112.479,-662.2953C1109.6996,-653.5055 1106.4965,-643.3757 1103.5008,-633.9021"/>
<polygon fill="#000000" stroke="#000000" points="1106.8328,-632.8303 1100.4807,-624.3509 1100.1585,-634.9408 1106.8328,-632.8303"/>
</g>
<!-- xl -->
<g id="node58" class="node">
<title>xl</title>
<polygon fill="none" stroke="#000000" points="1917,-324 1890,-306 1917,-288 1944,-306 1917,-324"/>
<text text-anchor="middle" x="1917" y="-301.8" font-family="Times,serif" font-size="14.00" fill="#000000">xl</text>
</g>
<!-- bg&#45;&gt;xl -->
<g id="edge108" class="edge">
<title>bg-&gt;xl</title>
<path fill="none" stroke="#000000" d="M1901.3397,-362.3771C1903.8557,-353.3195 1907.0845,-341.6958 1909.956,-331.3584"/>
<polygon fill="#000000" stroke="#000000" points="1913.3646,-332.1644 1912.6688,-321.5924 1906.6199,-330.2908 1913.3646,-332.1644"/>
</g>
<!-- mf&#45;&gt;xd -->
<g id="edge68" class="edge">
<title>mf-&gt;xd</title>
<path fill="none" stroke="#000000" d="M1821.542,-923.5963C1820.5056,-915.222 1820.0927,-904.4624 1820.3034,-894.1877"/>
<polygon fill="#000000" stroke="#000000" points="1823.8009,-894.3185 1820.7219,-884.1809 1816.807,-894.0259 1823.8009,-894.3185"/>
</g>
<!-- mf&#45;&gt;qb -->
<g id="edge69" class="edge">
<title>mf-&gt;qb</title>
<path fill="none" stroke="#000000" d="M1840.5529,-928.6539C1877.7969,-900.8566 1981.9418,-823.1274 2027.3609,-789.2285"/>
<polygon fill="#000000" stroke="#000000" points="2029.7039,-791.8472 2035.6245,-783.061 2025.517,-786.2374 2029.7039,-791.8472"/>
</g>
<!-- qb&#45;&gt;zq -->
<g id="edge94" class="edge">
<title>qb-&gt;zq</title>
<path fill="none" stroke="#000000" d="M2032.2275,-765.3576C1999.1635,-750.1381 1925.3677,-716.1694 1885.9656,-698.0325"/>
<polygon fill="#000000" stroke="#000000" points="1887.2823,-694.7856 1876.7349,-693.7835 1884.3553,-701.1443 1887.2823,-694.7856"/>
</g>
<!-- lt -->
<g id="node52" class="node">
<title>lt</title>
<polygon fill="none" stroke="#000000" points="760,-540 733,-522 760,-504 787,-522 760,-540"/>
<text text-anchor="middle" x="760" y="-517.8" font-family="Times,serif" font-size="14.00" fill="#000000">lt</text>
</g>
<!-- pm&#45;&gt;lt -->
<g id="edge90" class="edge">
<title>pm-&gt;lt</title>
<path fill="none" stroke="#000000" d="M723.8663,-586.6246C730.494,-574.7711 740.0895,-557.6097 747.7268,-543.9504"/>
<polygon fill="#000000" stroke="#000000" points="750.8154,-545.5982 752.6408,-535.1618 744.7056,-542.182 750.8154,-545.5982"/>
</g>
<!-- xh&#45;&gt;qh -->
<g id="edge83" class="edge">
<title>xh-&gt;qh</title>
<path fill="none" stroke="#000000" d="M803.3268,-436.1177C808.5838,-426.1571 815.7873,-412.5083 821.8925,-400.9405"/>
<polygon fill="#000000" stroke="#000000" points="825.1234,-402.3172 826.6957,-391.8397 818.9327,-399.0499 825.1234,-402.3172"/>
</g>
<!-- bx -->
<g id="node53" class="node">
<title>bx</title>
<polygon fill="none" stroke="#000000" points="884,-180 854.9682,-162 884,-144 913.0318,-162 884,-180"/>
<text text-anchor="middle" x="884" y="-157.8" font-family="Times,serif" font-size="14.00" fill="#000000">bx</text>
</g>
<!-- gp&#45;&gt;bx -->
<g id="edge59" class="edge">
<title>gp-&gt;bx</title>
<path fill="none" stroke="#000000" d="M857.5197,-219.7751C861.9943,-210.0123 868.0375,-196.8272 873.221,-185.5179"/>
<polygon fill="#000000" stroke="#000000" points="876.5089,-186.7443 877.4938,-176.1953 870.1455,-183.8277 876.5089,-186.7443"/>
</g>
<!-- nz -->
<g id="node57" class="node">
<title>nz</title>
<polygon fill="none" stroke="#000000" points="683,-704.0804 654.5024,-686.0804 683,-668.0804 711.4976,-686.0804 683,-704.0804"/>
<text text-anchor="middle" x="683" y="-681.8804" font-family="Times,serif" font-size="14.00" fill="#000000">nz</text>
</g>
<!-- nn&#45;&gt;nz -->
<g id="edge80" class="edge">
<title>nn-&gt;nz</title>
<path fill="none" stroke="#000000" d="M547.3097,-764.2575C573.5378,-749.1463 627.2666,-718.1908 658.6743,-700.0954"/>
<polygon fill="#000000" stroke="#000000" points="660.7323,-702.9491 667.6498,-694.9243 657.2378,-696.8838 660.7323,-702.9491"/>
</g>
<!-- bv&#45;&gt;gt -->
<g id="edge74" class="edge">
<title>bv-&gt;gt</title>
<path fill="none" stroke="#000000" d="M790.5885,-923.9675C789.4483,-914.9928 789.0365,-903.1813 789.3533,-892.1579"/>
<polygon fill="#000000" stroke="#000000" points="792.86,-892.116 789.8803,-881.9489 785.8694,-891.7551 792.86,-892.116"/>
</g>
<!-- bv&#45;&gt;nn -->
<g id="edge75" class="edge">
<title>bv-&gt;nn</title>
<path fill="none" stroke="#000000" d="M781.4302,-929.6249C737.8879,-902.297 608.4691,-821.0714 555.2514,-787.671"/>
<polygon fill="#000000" stroke="#000000" points="556.8554,-784.5455 546.5248,-782.1941 553.1342,-790.4745 556.8554,-784.5455"/>
</g>
<!-- xc&#45;&gt;bb -->
<g id="edge109" class="edge">
<title>xc-&gt;bb</title>
<path fill="none" stroke="#000000" d="M1023.8517,-840.8181C1032.0522,-829.3411 1041.8022,-814.1677 1048,-799.3823 1071.018,-744.4706 1083.2224,-675.8581 1088.8814,-635.3101"/>
<polygon fill="#000000" stroke="#000000" points="1092.3519,-635.7634 1090.2133,-625.3866 1085.4141,-634.8322 1092.3519,-635.7634"/>
</g>
<!-- jf&#45;&gt;zt -->
<g id="edge106" class="edge">
<title>jf-&gt;zt</title>
<path fill="none" stroke="#000000" d="M405.2733,-947.4627C377.7685,-961.1862 318.936,-987.8824 282.5798,-1003.2092"/>
<polygon fill="#000000" stroke="#000000" points="280.8535,-1000.1365 272.9661,-1007.2104 283.5433,-1006.5991 280.8535,-1000.1365"/>
</g>
<!-- pd -->
<g id="node59" class="node">
<title>pd</title>
<polygon fill="none" stroke="#000000" points="285,-878.0757 255.9682,-860.0757 285,-842.0757 314.0318,-860.0757 285,-878.0757"/>
<text text-anchor="middle" x="285" y="-855.8757" font-family="Times,serif" font-size="14.00" fill="#000000">pd</text>
</g>
<!-- jf&#45;&gt;pd -->
<g id="edge107" class="edge">
<title>jf-&gt;pd</title>
<path fill="none" stroke="#000000" d="M405.5526,-930.3476C382.4524,-916.8821 336.9578,-890.3627 308.9405,-874.031"/>
<polygon fill="#000000" stroke="#000000" points="310.5686,-870.9288 300.1666,-868.9166 307.0434,-876.9764 310.5686,-870.9288"/>
</g>
<!-- fh&#45;&gt;xp -->
<g id="edge93" class="edge">
<title>fh-&gt;xp</title>
<path fill="none" stroke="#000000" d="M190,-582.4418C190,-572.907 190,-561.0257 190,-550.3268"/>
<polygon fill="#000000" stroke="#000000" points="193.5001,-550.1526 190,-540.1527 186.5001,-550.1527 193.5001,-550.1526"/>
</g>
<!-- br&#45;&gt;px -->
<g id="edge60" class="edge">
<title>br-&gt;px</title>
<path fill="none" stroke="#000000" d="M1476.5639,-586.6246C1471.3236,-575.1697 1463.8156,-558.7578 1457.6773,-545.3399"/>
<polygon fill="#000000" stroke="#000000" points="1460.8446,-543.8499 1453.5017,-536.2123 1454.4791,-546.762 1460.8446,-543.8499"/>
</g>
<!-- bs -->
<g id="node56" class="node">
<title>bs</title>
<polygon fill="none" stroke="#000000" points="1351,-252 1323.0024,-234 1351,-216 1378.9976,-234 1351,-252"/>
<text text-anchor="middle" x="1351" y="-229.8" font-family="Times,serif" font-size="14.00" fill="#000000">bs</text>
</g>
<!-- vg&#45;&gt;bs -->
<g id="edge91" class="edge">
<title>vg-&gt;bs</title>
<path fill="none" stroke="#000000" d="M1351,-287.8314C1351,-280.131 1351,-270.9743 1351,-262.4166"/>
<polygon fill="#000000" stroke="#000000" points="1354.5001,-262.4132 1351,-252.4133 1347.5001,-262.4133 1354.5001,-262.4132"/>
</g>
<!-- ks&#45;&gt;bb -->
<g id="edge72" class="edge">
<title>ks-&gt;bb</title>
<path fill="none" stroke="#000000" d="M1168.5074,-670.0197C1154.49,-657.1498 1134.617,-638.9037 1118.7772,-624.3605"/>
<polygon fill="#000000" stroke="#000000" points="1121.1019,-621.7434 1111.3686,-617.5584 1116.3677,-626.8997 1121.1019,-621.7434"/>
</g>
<!-- fr&#45;&gt;zm -->
<g id="edge87" class="edge">
<title>fr-&gt;zm</title>
<path fill="none" stroke="#000000" d="M1400.1812,-927.1577C1411.0619,-914.7484 1428.5087,-894.8506 1441.5804,-879.9425"/>
<polygon fill="#000000" stroke="#000000" points="1444.3616,-882.0794 1448.3228,-872.2529 1439.0983,-877.4644 1444.3616,-882.0794"/>
</g>
<!-- fr&#45;&gt;ms -->
<g id="edge86" class="edge">
<title>fr-&gt;ms</title>
<path fill="none" stroke="#000000" d="M1385.8867,-923.4783C1383.0107,-897.6661 1382.4875,-844.7815 1384.317,-809.1189"/>
<polygon fill="#000000" stroke="#000000" points="1387.8125,-809.2984 1384.9276,-799.1039 1380.8255,-808.8724 1387.8125,-809.2984"/>
</g>
<!-- xj -->
<g id="node49" class="node">
<title>xj</title>
<polygon fill="none" stroke="#000000" points="1436,-180 1409,-162 1436,-144 1463,-162 1436,-180"/>
<text text-anchor="middle" x="1436" y="-157.8" font-family="Times,serif" font-size="14.00" fill="#000000">xj</text>
</g>
<!-- xj&#45;&gt;ms -->
<g id="edge54" class="edge">
<title>xj-&gt;ms</title>
<path fill="none" stroke="#000000" d="M1449.3347,-171.4844C1476.983,-192.3719 1538,-245.3401 1538,-306 1538,-522 1538,-522 1538,-522 1538,-611.7949 1525.1961,-643.2539 1466,-710.7738 1452.5548,-726.1096 1435.0948,-740.7083 1420.3012,-751.9143"/>
<polygon fill="#000000" stroke="#000000" points="1417.9022,-749.3357 1411.9495,-758.1002 1422.0685,-754.9608 1417.9022,-749.3357"/>
</g>
<!-- vt -->
<g id="node50" class="node">
<title>vt</title>
<polygon fill="none" stroke="#000000" points="1436,-108 1409,-90 1436,-72 1463,-90 1436,-108"/>
<text text-anchor="middle" x="1436" y="-85.8" font-family="Times,serif" font-size="14.00" fill="#000000">vt</text>
</g>
<!-- xj&#45;&gt;vt -->
<g id="edge55" class="edge">
<title>xj-&gt;vt</title>
<path fill="none" stroke="#000000" d="M1436,-143.8314C1436,-136.131 1436,-126.9743 1436,-118.4166"/>
<polygon fill="#000000" stroke="#000000" points="1439.5001,-118.4132 1436,-108.4133 1432.5001,-118.4133 1439.5001,-118.4132"/>
</g>
<!-- vt&#45;&gt;ms -->
<g id="edge78" class="edge">
<title>vt-&gt;ms</title>
<path fill="none" stroke="#000000" d="M1415.5563,-94.4936C1364.9676,-106.9423 1238,-146.8656 1238,-234 1238,-600.6935 1238,-600.6935 1238,-600.6935 1238,-653.8908 1249.9466,-670.7586 1285,-710.7738 1304.3097,-732.8168 1333.3858,-749.2222 1356.0484,-759.6503"/>
<polygon fill="#000000" stroke="#000000" points="1354.76,-762.9075 1365.3211,-763.7526 1357.5921,-756.506 1354.76,-762.9075"/>
</g>
<!-- ts -->
<g id="node51" class="node">
<title>ts</title>
<polygon fill="none" stroke="#000000" points="1525,-36 1498,-18 1525,0 1552,-18 1525,-36"/>
<text text-anchor="middle" x="1525" y="-13.8" font-family="Times,serif" font-size="14.00" fill="#000000">ts</text>
</g>
<!-- vt&#45;&gt;ts -->
<g id="edge79" class="edge">
<title>vt-&gt;ts</title>
<path fill="none" stroke="#000000" d="M1448.3751,-79.9887C1462.9876,-68.1673 1487.4959,-48.3404 1504.8564,-34.2959"/>
<polygon fill="#000000" stroke="#000000" points="1507.1569,-36.9368 1512.73,-27.9263 1502.7542,-31.4947 1507.1569,-36.9368"/>
</g>
<!-- ts&#45;&gt;ms -->
<g id="edge56" class="edge">
<title>ts-&gt;ms</title>
<path fill="none" stroke="#000000" d="M1537.0029,-28.1947C1561.2961,-50.0392 1614,-104.1026 1614,-162 1614,-600.6935 1614,-600.6935 1614,-600.6935 1614,-650.3415 1627.8613,-673.5574 1595,-710.7738 1572.6106,-736.1305 1478.563,-756.9052 1425.9769,-766.81"/>
<polygon fill="#000000" stroke="#000000" points="1425.2441,-763.3861 1416.0461,-768.6442 1426.5155,-770.2697 1425.2441,-763.3861"/>
</g>
<!-- lt&#45;&gt;gt -->
<g id="edge57" class="edge">
<title>lt-&gt;gt</title>
<path fill="none" stroke="#000000" d="M761.7905,-538.8149C767.4501,-591.9639 785.0219,-756.9802 792.5354,-827.54"/>
<polygon fill="#000000" stroke="#000000" points="789.0708,-828.0587 793.6101,-837.6318 796.0314,-827.3174 789.0708,-828.0587"/>
</g>
<!-- lt&#45;&gt;xh -->
<g id="edge58" class="edge">
<title>lt-&gt;xh</title>
<path fill="none" stroke="#000000" d="M766.7713,-508.4574C771.736,-498.528 778.5981,-484.8037 784.4259,-473.1483"/>
<polygon fill="#000000" stroke="#000000" points="787.6718,-474.4826 789.0135,-463.973 781.4108,-471.3521 787.6718,-474.4826"/>
</g>
<!-- bx&#45;&gt;jr -->
<g id="edge97" class="edge">
<title>bx-&gt;jr</title>
<path fill="none" stroke="#000000" d="M884,-143.8314C884,-136.131 884,-126.9743 884,-118.4166"/>
<polygon fill="#000000" stroke="#000000" points="887.5001,-118.4132 884,-108.4133 880.5001,-118.4133 887.5001,-118.4132"/>
</g>
<!-- bx&#45;&gt;gt -->
<g id="edge98" class="edge">
<title>bx-&gt;gt</title>
<path fill="none" stroke="#000000" d="M891.4308,-175.8554C904.2121,-201.0185 929,-256.2347 929,-306 929,-686.0804 929,-686.0804 929,-686.0804 929,-741.303 912.6501,-756.3833 878,-799.3823 863.3313,-817.5853 841.9902,-833.1522 824.7566,-843.9622"/>
<polygon fill="#000000" stroke="#000000" points="822.9085,-840.9896 816.176,-849.1703 826.5406,-846.9736 822.9085,-840.9896"/>
</g>
<!-- broadcaster -->
<g id="node54" class="node">
<title>broadcaster</title>
<polygon fill="none" stroke="#000000" points="1130.0163,-1026.7761 1061.9837,-1026.7761 1061.9837,-1002.7761 1130.0163,-1002.7761 1142.0163,-1014.7761 1130.0163,-1026.7761"/>
<text text-anchor="middle" x="1102" y="-1010.5761" font-family="Times,serif" font-size="14.00" fill="#000000">broadcaster</text>
</g>
<!-- broadcaster&#45;&gt;mf -->
<g id="edge65" class="edge">
<title>broadcaster-&gt;mf</title>
<path fill="none" stroke="#000000" d="M1142.2719,-1010.5541C1270.6338,-997.097 1668.8454,-955.3496 1791.0008,-942.5432"/>
<polygon fill="#000000" stroke="#000000" points="1791.3842,-946.0223 1800.9647,-941.4986 1790.6542,-939.0605 1791.3842,-946.0223"/>
</g>
<!-- broadcaster&#45;&gt;bv -->
<g id="edge66" class="edge">
<title>broadcaster-&gt;bv</title>
<path fill="none" stroke="#000000" d="M1061.6812,-1004.7613C999.781,-989.3861 882.6641,-960.2956 826.9508,-946.457"/>
<polygon fill="#000000" stroke="#000000" points="827.524,-942.9931 816.9752,-943.9792 825.8365,-949.7867 827.524,-942.9931"/>
</g>
<!-- broadcaster&#45;&gt;jf -->
<g id="edge64" class="edge">
<title>broadcaster-&gt;jf</title>
<path fill="none" stroke="#000000" d="M1061.8839,-1010.3053C938.656,-996.5719 567.098,-955.1628 453.4141,-942.4931"/>
<polygon fill="#000000" stroke="#000000" points="453.5606,-938.9878 443.2345,-941.3586 452.7853,-945.9448 453.5606,-938.9878"/>
</g>
<!-- broadcaster&#45;&gt;fr -->
<g id="edge63" class="edge">
<title>broadcaster-&gt;fr</title>
<path fill="none" stroke="#000000" d="M1142.0452,-1004.2076C1200.7519,-988.7142 1308.8176,-960.1943 1360.6979,-946.5024"/>
<polygon fill="#000000" stroke="#000000" points="1361.8102,-949.8287 1370.586,-943.8928 1360.0239,-943.0605 1361.8102,-949.8287"/>
</g>
<!-- bs&#45;&gt;ms -->
<g id="edge77" class="edge">
<title>bs-&gt;ms</title>
<path fill="none" stroke="#000000" d="M1340.2543,-245.2691C1319.5162,-268.2543 1276,-323.0341 1276,-378 1276,-600.6935 1276,-600.6935 1276,-600.6935 1276,-653.7179 1291.5176,-667.387 1322,-710.7738 1332.6717,-725.9632 1347.6242,-740.1733 1360.7914,-751.1757"/>
<polygon fill="#000000" stroke="#000000" points="1358.733,-754.0126 1368.7049,-757.5919 1363.1415,-748.5753 1358.733,-754.0126"/>
</g>
<!-- bs&#45;&gt;xj -->
<g id="edge76" class="edge">
<title>bs-&gt;xj</title>
<path fill="none" stroke="#000000" d="M1363.1784,-223.6842C1376.9384,-212.0287 1399.5465,-192.8783 1415.9262,-179.0037"/>
<polygon fill="#000000" stroke="#000000" points="1418.4759,-181.4309 1423.8442,-172.2967 1413.9515,-176.0895 1418.4759,-181.4309"/>
</g>
<!-- nz&#45;&gt;gt -->
<g id="edge82" class="edge">
<title>nz-&gt;gt</title>
<path fill="none" stroke="#000000" d="M686.2812,-702.3071C691.5391,-725.4629 703.5113,-768.5871 725,-799.3823 736.6359,-816.0576 753.9068,-830.9586 768.501,-841.8228"/>
<polygon fill="#000000" stroke="#000000" points="766.5599,-844.7379 776.7217,-847.7359 770.6474,-839.0552 766.5599,-844.7379"/>
</g>
<!-- nz&#45;&gt;pm -->
<g id="edge81" class="edge">
<title>nz-&gt;pm</title>
<path fill="none" stroke="#000000" d="M688.598,-671.5956C693.4687,-658.9927 700.6336,-640.4538 706.4153,-625.4936"/>
<polygon fill="#000000" stroke="#000000" points="709.8116,-626.4146 710.1519,-615.8252 703.2823,-623.8911 709.8116,-626.4146"/>
</g>
<!-- xl&#45;&gt;xd -->
<g id="edge84" class="edge">
<title>xl-&gt;xd</title>
<path fill="none" stroke="#000000" d="M1923.1098,-319.9994C1933.6188,-345.391 1954,-400.9571 1954,-450 1954,-686.0804 1954,-686.0804 1954,-686.0804 1954,-741.303 1936.8551,-755.7546 1903,-799.3823 1890.2792,-815.775 1872.2595,-830.4148 1856.9589,-841.2074"/>
<polygon fill="#000000" stroke="#000000" points="1854.6106,-838.5727 1848.3249,-847.1016 1858.5573,-844.354 1854.6106,-838.5727"/>
</g>
<!-- xl&#45;&gt;sn -->
<g id="edge85" class="edge">
<title>xl-&gt;sn</title>
<path fill="none" stroke="#000000" d="M1917,-287.8314C1917,-280.131 1917,-270.9743 1917,-262.4166"/>
<polygon fill="#000000" stroke="#000000" points="1920.5001,-262.4132 1917,-252.4133 1913.5001,-262.4133 1920.5001,-262.4132"/>
</g>
<!-- pd&#45;&gt;zt -->
<g id="edge89" class="edge">
<title>pd-&gt;zt</title>
<path fill="none" stroke="#000000" d="M281.5722,-876.1449C276.2025,-901.3173 265.7059,-950.5243 258.7729,-983.0257"/>
<polygon fill="#000000" stroke="#000000" points="255.3214,-982.4292 256.6581,-992.9394 262.1674,-983.8896 255.3214,-982.4292"/>
</g>
<!-- pd&#45;&gt;hr -->
<g id="edge88" class="edge">
<title>pd-&gt;hr</title>
<path fill="none" stroke="#000000" d="M278.3948,-845.7098C272.1838,-832.2012 262.783,-811.7551 255.5364,-795.9941"/>
<polygon fill="#000000" stroke="#000000" points="258.708,-794.5137 251.3505,-786.8901 252.348,-797.4379 258.708,-794.5137"/>
</g>
</g>
</svg>